<svg id="color" height="512" viewBox="0 0 24 24" width="512" xmlns="http://www.w3.org/2000/svg"><path d="m14 24c-1.103 0-2-.897-2-2v-1.75c0-.331.217-.623.535-.718l2.5-.75c.228-.068.474-.025.663.117.19.141.302.364.302.601v2.5c0 1.103-.897 2-2 2z" fill="#eceff1"/><path d="m9 24c-.552 0-1-.448-1-1v-3.535c0-.552.448-1 1-1s1 .448 1 1v3.535c0 .552-.448 1-1 1z" fill="#eceff1"/><path d="m12 4c-.552 0-1-.448-1-1v-2c0-.552.448-1 1-1s1 .448 1 1v2c0 .552-.448 1-1 1z" fill="#607d8b"/><path d="m14.25 6.5h-4.5c-.414 0-.75-.336-.75-.75v-2c0-.965.785-1.75 1.75-1.75h2.5c.965 0 1.75.785 1.75 1.75v2c0 .414-.336.75-.75.75z" fill="#eceff1"/><path d="m12 21c-3.86 0-7-3.14-7-7v-6.25c0-1.517 1.233-2.75 2.75-2.75h8.5c1.517 0 2.75 1.233 2.75 2.75v6.25c0 3.86-3.14 7-7 7z" fill="#f44336"/><path d="m14.518 11.482h-1.518v-1.517c0-.552-.448-1-1-1s-1 .448-1 1v1.518h-1.518c-.552 0-1 .448-1 1s.448 1 1 1h1.518v1.517c0 .552.448 1 1 1s1-.448 1-1v-1.518h1.518c.552 0 1-.448 1-1s-.448-1-1-1z" fill="#fff"/><path d="m8 19.742v3.258c0 .552.448 1 1 1s1-.448 1-1v-2.291c-.722-.216-1.396-.545-2-.967z" fill="#cdd0d2"/><path d="m12 0c-.552 0-1 .448-1 1v1h1z" fill="#546d79"/><path d="m12 2h-1-.25c-.965 0-1.75.785-1.75 1.75v1.25h3z" fill="#cdd0d2"/><path d="m12 5h-3-1.25c-1.517 0-2.75 1.233-2.75 2.75v6.25c0 2.374 1.188 4.476 3 5.742.604.422 1.278.751 2 .967.634.189 1.305.291 2 .291v-5c-.552 0-1-.448-1-1v-1.518h-1.518c-.552 0-1-.448-1-1s.448-1 1-1h1.518v-1.517c0-.552.448-1 1-1z" fill="#d43a2f"/><path d="m12 8.965c-.552 0-1 .448-1 1v1.518h-1.518c-.552 0-1 .448-1 1s.448 1 1 1h1.518v1.517c0 .552.448 1 1 1z" fill="#dedede"/></svg>